<svg xmlns="http://www.w3.org/2000/svg" width="27.997" height="24.607" viewBox="0 0 27.997 24.607">
  <g id="supermarket" transform="translate(0 0)">
    <path id="Path_4" data-name="Path 4" d="M9.02,16.405H23.9a.82.82,0,0,0,.789-.595L27.966,4.327a.82.82,0,0,0-.789-1.046H7.129L6.542.642A.82.82,0,0,0,5.741,0H.82a.82.82,0,1,0,0,1.64H5.084L8.045,14.967a2.46,2.46,0,0,0,.977,4.718H23.9a.82.82,0,1,0,0-1.64H9.022a.82.82,0,0,1,0-1.64ZM26.089,4.922l-2.812,9.843H9.68L7.493,4.922Zm0,0" transform="translate(0)" fill="#757575"/>
    <path id="Path_5" data-name="Path 5" d="M150,362.461A2.461,2.461,0,1,0,152.461,360,2.464,2.464,0,0,0,150,362.461Zm2.461-.82a.82.82,0,1,1-.82.82A.821.821,0,0,1,152.461,361.641Zm0,0" transform="translate(-141.798 -340.314)" fill="#757575"/>
    <path id="Path_6" data-name="Path 6" d="M362,362.461A2.461,2.461,0,1,0,364.461,360,2.463,2.463,0,0,0,362,362.461Zm2.461-.82a.82.82,0,1,1-.82.82A.821.821,0,0,1,364.461,361.641Zm0,0" transform="translate(-342.205 -340.314)" fill="#757575"/>
  </g>
</svg>
