<svg xmlns="http://www.w3.org/2000/svg" xmlns:xlink="http://www.w3.org/1999/xlink" width="27.604" height="27.604" viewBox="0 0 27.604 27.604">
  <defs>
    <linearGradient id="linear-gradient" x1="0.084" y1="0.916" x2="0.916" y2="0.084" gradientUnits="objectBoundingBox">
      <stop offset="0" stop-color="#ffd600"/>
      <stop offset="0.5" stop-color="#ff0100"/>
      <stop offset="1" stop-color="#d800b9"/>
    </linearGradient>
    <linearGradient id="linear-gradient-2" x1="0.146" y1="0.854" x2="0.854" y2="0.146" gradientUnits="objectBoundingBox">
      <stop offset="0" stop-color="#ff6400"/>
      <stop offset="0.5" stop-color="#ff0100"/>
      <stop offset="1" stop-color="#fd0056"/>
    </linearGradient>
    <linearGradient id="linear-gradient-3" x1="0.146" y1="0.854" x2="0.854" y2="0.146" gradientUnits="objectBoundingBox">
      <stop offset="0" stop-color="#f30072"/>
      <stop offset="1" stop-color="#e50097"/>
    </linearGradient>
  </defs>
  <g id="instagram" transform="translate(0 0)">
    <path id="Path_8" data-name="Path 8" d="M27.521,8.111a10.133,10.133,0,0,0-.642-3.35,6.764,6.764,0,0,0-1.592-2.445A6.766,6.766,0,0,0,22.843.724a10.131,10.131,0,0,0-3.35-.641C18.02.016,17.55,0,13.8,0S9.583.016,8.111.083a10.134,10.134,0,0,0-3.35.642A6.764,6.764,0,0,0,2.316,2.316,6.766,6.766,0,0,0,.724,4.761a10.132,10.132,0,0,0-.641,3.35C.016,9.583,0,10.053,0,13.8s.016,4.219.083,5.691a10.13,10.13,0,0,0,.641,3.35,6.764,6.764,0,0,0,1.592,2.444,6.763,6.763,0,0,0,2.445,1.592,10.127,10.127,0,0,0,3.35.642c1.472.067,1.942.083,5.69.083s4.219-.016,5.69-.083a10.128,10.128,0,0,0,3.35-.642,7.056,7.056,0,0,0,4.036-4.036,10.13,10.13,0,0,0,.642-3.35c.067-1.472.083-1.942.083-5.69s-.016-4.219-.083-5.69ZM25.036,19.379a7.636,7.636,0,0,1-.475,2.563,4.571,4.571,0,0,1-2.619,2.619,7.636,7.636,0,0,1-2.563.475c-1.455.067-1.892.08-5.577.08s-4.122-.014-5.577-.08a7.639,7.639,0,0,1-2.563-.475,4.277,4.277,0,0,1-1.587-1.033,4.276,4.276,0,0,1-1.033-1.587,7.636,7.636,0,0,1-.475-2.563c-.066-1.455-.08-1.892-.08-5.577s.014-4.122.08-5.577a7.642,7.642,0,0,1,.475-2.563A4.279,4.279,0,0,1,4.075,4.075,4.273,4.273,0,0,1,5.662,3.042a7.635,7.635,0,0,1,2.563-.475c1.455-.066,1.892-.08,5.577-.08h0c3.685,0,4.122.014,5.577.081a7.638,7.638,0,0,1,2.563.475,4.279,4.279,0,0,1,1.587,1.032,4.273,4.273,0,0,1,1.032,1.587,7.629,7.629,0,0,1,.475,2.563c.066,1.455.08,1.892.08,5.577s-.014,4.122-.08,5.577Zm0,0" transform="translate(0 0)" fill="url(#linear-gradient)"/>
    <path id="Path_9" data-name="Path 9" d="M131.626,124.539a7.087,7.087,0,1,0,7.088,7.088A7.088,7.088,0,0,0,131.626,124.539Zm0,11.688a4.6,4.6,0,1,1,4.6-4.6A4.6,4.6,0,0,1,131.626,136.227Zm0,0" transform="translate(-117.825 -117.825)" fill="url(#linear-gradient-2)"/>
    <path id="Path_10" data-name="Path 10" d="M365.242,90.282a1.656,1.656,0,1,1-1.656-1.656A1.656,1.656,0,0,1,365.242,90.282Zm0,0" transform="translate(-342.417 -83.847)" fill="url(#linear-gradient-3)"/>
  </g>
</svg>
