<svg xmlns="http://www.w3.org/2000/svg" width="28.36" height="25.231" viewBox="0 0 28.36 25.231">
  <path id="heart" d="M14.18,25.231a1.663,1.663,0,0,1-1.1-.412c-1.146-1-2.25-1.943-3.225-2.774l0,0a59.973,59.973,0,0,1-7.041-6.609A10.556,10.556,0,0,1,0,8.523,8.864,8.864,0,0,1,2.25,2.469,7.626,7.626,0,0,1,7.923,0a7.133,7.133,0,0,1,4.456,1.538,9.116,9.116,0,0,1,1.8,1.881,9.117,9.117,0,0,1,1.8-1.881A7.133,7.133,0,0,1,20.438,0,7.626,7.626,0,0,1,26.11,2.469a8.864,8.864,0,0,1,2.25,6.054,10.554,10.554,0,0,1-2.813,6.909,59.967,59.967,0,0,1-7.04,6.609c-.976.832-2.083,1.775-3.231,2.779a1.664,1.664,0,0,1-1.1.412ZM7.923,1.661A5.983,5.983,0,0,0,3.471,3.6a7.21,7.21,0,0,0-1.81,4.928,8.881,8.881,0,0,0,2.431,5.849,59.018,59.018,0,0,0,6.839,6.4l.005,0c.978.834,2.087,1.779,3.241,2.788,1.161-1.011,2.272-1.958,3.252-2.793a59.033,59.033,0,0,0,6.839-6.4,8.882,8.882,0,0,0,2.43-5.85A7.21,7.21,0,0,0,24.889,3.6a5.983,5.983,0,0,0-4.451-1.934A5.51,5.51,0,0,0,17,2.852,8.061,8.061,0,0,0,15.081,5.07a1.049,1.049,0,0,1-1.8,0,8.054,8.054,0,0,0-1.917-2.218,5.51,5.51,0,0,0-3.44-1.191Zm0,0" transform="translate(0 0)" fill="#757575"/>
</svg>
