<svg xmlns="http://www.w3.org/2000/svg" width="25.647" height="30.152" viewBox="0 0 25.647 30.152">
  <g id="user" transform="translate(-36.073)">
    <g id="Group_2" data-name="Group 2" transform="translate(36.073)">
      <path id="Path_2" data-name="Path 2" d="M143.489,16.247h.2a5.762,5.762,0,0,0,4.4-1.9c2.4-2.71,2-7.355,1.961-7.8-.156-3.328-1.73-4.92-3.028-5.663A6.942,6.942,0,0,0,143.664,0h-.106A6.953,6.953,0,0,0,140.2.855c-1.311.743-2.91,2.335-3.066,5.688-.044.443-.443,5.089,1.961,7.8A5.739,5.739,0,0,0,143.489,16.247ZM138.8,6.7c0-.019.006-.037.006-.05.206-4.477,3.384-4.958,4.745-4.958h.075c1.686.037,4.552.724,4.745,4.958a.122.122,0,0,0,.006.05c.006.044.443,4.29-1.542,6.525a4.092,4.092,0,0,1-3.216,1.336h-.062a4.079,4.079,0,0,1-3.209-1.336C138.369,11,138.794,6.737,138.8,6.7Z" transform="translate(-130.775)" fill="#757575"/>
      <path id="Path_3" data-name="Path 3" d="M61.718,267.009v-.019c0-.05-.006-.1-.006-.156-.037-1.236-.119-4.127-2.828-5.051l-.062-.019a18.017,18.017,0,0,1-5.182-2.36.843.843,0,0,0-.968,1.38,19.447,19.447,0,0,0,5.7,2.6c1.455.518,1.617,2.073,1.661,3.5a1.253,1.253,0,0,0,.006.156,11.334,11.334,0,0,1-.131,1.929,22.98,22.98,0,0,1-11.008,2.56,23.111,23.111,0,0,1-11.014-2.566,10.729,10.729,0,0,1-.131-1.929c0-.05.006-.1.006-.156.044-1.424.206-2.978,1.661-3.5a19.628,19.628,0,0,0,5.7-2.6.843.843,0,1,0-.968-1.38,17.819,17.819,0,0,1-5.182,2.36c-.025.006-.044.012-.062.019-2.71.93-2.791,3.821-2.828,5.051a1.255,1.255,0,0,1-.006.156V267a9.575,9.575,0,0,0,.318,2.828.8.8,0,0,0,.325.393c.187.125,4.677,2.985,12.188,2.985s12-2.866,12.188-2.985a.836.836,0,0,0,.325-.393A10.046,10.046,0,0,0,61.718,267.009Z" transform="translate(-36.073 -243.057)" fill="#757575"/>
    </g>
  </g>
</svg>
